<?xml version="1.0" encoding="UTF-8"?><svg id="Layer_1" xmlns="http://www.w3.org/2000/svg" viewBox="0 0 4003.83 925.14"><defs><style>.cls-1{fill:none;stroke:#000;stroke-miterlimit:10;stroke-width:4px;}.cls-2{fill:#94070a;}.cls-3{fill:#e00a0f;}</style></defs><line class="cls-1" x1="3255.33" y1="119.41" x2="3255.33" y2="805.73"/><path d="M3560.58,674.77c-100.83,0-151.25-75-151.25-225s50.42-231.25,151.25-231.25,151.25,77.08,151.25,231.25-50.42,225-151.25,225Zm0-57.5c56.25,0,84.38-55.83,84.38-167.5s-28.12-173.75-84.38-173.75-84.38,57.92-84.38,173.75,28.12,167.5,84.38,167.5Z"/><g><path d="M3730.78,172.19v-20.39h112.5v20.39h-112.5Zm31.17,45.23V114.3h24.84v103.12h-24.84Zm53.44,60.94c-18.83,0-32.44-3.91-40.84-11.72-8.4-7.81-12.6-20.31-12.6-37.5v-21.09h24.84v19.92c0,9.84,2.4,16.99,7.21,21.45s12.71,6.68,23.73,6.68c3.91,0,8.05-.21,12.42-.64,4.37-.43,9.38-1,15-1.7l2.81,21.8c-5.47,.94-10.8,1.64-16,2.11-5.2,.47-10.72,.7-16.58,.7Z"/><path d="M3882.89,276.02V100.24h24.84v175.78h-24.84Zm76.41,0v-80.86c0-7.89-1.95-13.96-5.86-18.22-3.91-4.26-9.38-6.39-16.41-6.39-19.53,0-29.3,11.88-29.3,35.62l-7.27-31.88h9.61c.7-8.36,3.75-14.59,9.14-18.69s13.28-6.15,23.67-6.15c13.12,0,23.28,3.98,30.47,11.95,7.19,7.97,10.78,19.22,10.78,33.75v80.86h-24.84Z"/></g><polygon class="cls-2" points="267.59 818.18 0 664.4 0 274.92 267.59 131.85 267.59 818.18"/><polygon class="cls-3" points="289.09 0 289.09 925.14 480 873.18 480 51.96 289.09 0"/><polygon class="cls-3" points="507.42 685.41 507.42 865.71 960 742.53 960 625.42 507.42 685.41"/><polygon class="cls-3" points="960 182.61 507.42 59.43 507.42 638.62 960 591.6 960 182.61"/><g><path d="M1336.49,454.13c0,1.56-.51,2.97-1.52,4.22-1.02,1.25-2.7,2.27-5.04,3.05-2.34,.78-5.47,1.41-9.38,1.88-3.91,.47-8.83,.7-14.77,.7s-11.13-.23-15.12-.7-7.11-1.09-9.38-1.88c-2.27-.78-3.91-1.79-4.92-3.05-1.02-1.25-1.52-2.66-1.52-4.22v-122.58h-113.44v122.58c0,1.56-.47,2.97-1.41,4.22-.94,1.25-2.58,2.27-4.92,3.05-2.34,.78-5.47,1.41-9.38,1.88-3.91,.47-8.91,.7-15,.7s-10.9-.23-14.88-.7-7.15-1.09-9.49-1.88c-2.34-.78-4.02-1.79-5.04-3.05-1.02-1.25-1.52-2.66-1.52-4.22V167.73c0-1.56,.51-2.97,1.52-4.22,1.01-1.25,2.7-2.26,5.04-3.05,2.34-.78,5.51-1.41,9.49-1.88s8.94-.7,14.88-.7,11.09,.23,15,.7c3.9,.47,7.03,1.09,9.38,1.88,2.34,.78,3.98,1.8,4.92,3.05,.94,1.25,1.41,2.66,1.41,4.22v111.33h113.44v-111.33c0-1.56,.51-2.97,1.52-4.22,1.01-1.25,2.66-2.26,4.92-3.05,2.26-.78,5.39-1.41,9.38-1.88s9.02-.7,15.12-.7,10.86,.23,14.77,.7c3.9,.47,7.03,1.09,9.38,1.88,2.34,.78,4.02,1.8,5.04,3.05,1.01,1.25,1.52,2.66,1.52,4.22V454.13Z"/><path d="M1610.24,251.4c0,17.03-2.66,32.11-7.97,45.23-5.31,13.12-13.05,24.18-23.2,33.16-10.16,8.99-22.62,15.82-37.38,20.51s-32.15,7.03-52.15,7.03h-25.31v96.8c0,1.56-.51,2.97-1.52,4.22-1.02,1.25-2.7,2.27-5.04,3.05-2.34,.78-5.47,1.41-9.38,1.88-3.91,.47-8.91,.7-15,.7s-10.9-.23-14.88-.7-7.15-1.09-9.49-1.88c-2.34-.78-3.98-1.79-4.92-3.05-.94-1.25-1.41-2.66-1.41-4.22V181.32c0-7.34,1.91-12.85,5.74-16.52,3.83-3.67,8.87-5.51,15.12-5.51h71.48c7.19,0,14.02,.27,20.51,.82,6.48,.55,14.26,1.72,23.32,3.52,9.06,1.8,18.24,5.12,27.54,9.96,9.29,4.84,17.23,10.98,23.79,18.4,6.56,7.42,11.56,16.09,15,26.02,3.44,9.92,5.16,21.06,5.16,33.4Zm-64.45,4.45c0-10.62-1.88-19.37-5.62-26.25-3.75-6.87-8.36-11.95-13.83-15.23-5.47-3.28-11.21-5.35-17.23-6.21-6.02-.86-12.23-1.29-18.63-1.29h-26.25v102.89h27.66c9.84,0,18.08-1.33,24.73-3.98,6.64-2.66,12.07-6.36,16.29-11.13,4.22-4.76,7.42-10.47,9.61-17.11,2.19-6.64,3.28-13.86,3.28-21.68Z"/><path d="M1867.82,416.63c0,3.91-.12,7.23-.35,9.96-.23,2.74-.59,5.08-1.05,7.03-.47,1.96-1.09,3.63-1.88,5.04-.78,1.41-2.03,3.01-3.75,4.8-1.72,1.8-5.04,4.1-9.96,6.91s-10.94,5.51-18.05,8.09c-7.11,2.58-15.23,4.72-24.38,6.45-9.14,1.72-19.02,2.58-29.65,2.58-20.78,0-39.53-3.2-56.25-9.61-16.72-6.41-30.94-15.97-42.66-28.71-11.72-12.73-20.71-28.63-26.95-47.7-6.25-19.06-9.38-41.25-9.38-66.56s3.44-48.67,10.31-68.67c6.87-20,16.48-36.8,28.83-50.39,12.34-13.59,27.15-23.91,44.41-30.94,17.26-7.03,36.29-10.55,57.07-10.55,8.44,0,16.56,.7,24.38,2.11,7.81,1.41,15.04,3.24,21.68,5.51,6.64,2.27,12.62,4.89,17.93,7.85,5.31,2.97,9.02,5.51,11.13,7.62s3.55,3.87,4.34,5.27c.78,1.41,1.41,3.2,1.88,5.39,.47,2.19,.82,4.77,1.05,7.73,.23,2.97,.35,6.64,.35,11.02,0,4.69-.16,8.67-.47,11.95-.31,3.28-.86,5.94-1.64,7.97-.78,2.03-1.72,3.52-2.81,4.45-1.09,.94-2.34,1.41-3.75,1.41-2.34,0-5.31-1.37-8.91-4.1-3.6-2.73-8.24-5.78-13.95-9.14-5.71-3.36-12.5-6.41-20.39-9.14-7.89-2.73-17.31-4.1-28.24-4.1-12.03,0-22.77,2.46-32.23,7.38-9.46,4.92-17.5,11.95-24.14,21.09-6.64,9.14-11.68,20.2-15.12,33.16-3.44,12.97-5.16,27.58-5.16,43.83,0,17.81,1.83,33.24,5.51,46.29,3.67,13.05,8.91,23.79,15.7,32.23s15,14.73,24.61,18.87c9.61,4.14,20.43,6.21,32.46,6.21,10.94,0,20.39-1.29,28.36-3.87s14.8-5.43,20.51-8.55c5.7-3.12,10.39-5.94,14.06-8.44,3.67-2.5,6.52-3.75,8.55-3.75,1.56,0,2.81,.31,3.75,.94,.94,.63,1.72,1.88,2.34,3.75,.62,1.88,1.09,4.49,1.41,7.85,.31,3.36,.47,7.85,.47,13.48Z"/><path d="M2255.71,200.54c0,2.97-.16,5.59-.47,7.85-.31,2.27-.78,4.14-1.41,5.62-.63,1.49-1.41,2.54-2.34,3.16-.94,.63-1.96,.94-3.05,.94-1.88,0-5-1.48-9.38-4.45-4.38-2.97-10.24-6.25-17.58-9.84-7.35-3.59-16.13-6.87-26.37-9.84-10.24-2.97-22.38-4.45-36.45-4.45-16.72,0-31.72,3.05-45,9.14-13.28,6.09-24.53,14.53-33.75,25.31-9.22,10.78-16.29,23.59-21.21,38.44-4.92,14.85-7.38,30.94-7.38,48.28,0,19.38,2.7,36.56,8.09,51.56s12.85,27.66,22.38,37.97c9.53,10.31,20.9,18.13,34.1,23.44,13.2,5.31,27.69,7.97,43.48,7.97,9.38,0,18.87-1.13,28.48-3.4,9.61-2.26,18.55-5.66,26.84-10.2v-88.36h-70.31c-2.66,0-4.65-1.33-5.98-3.98-1.33-2.66-1.99-6.8-1.99-12.42,0-2.97,.15-5.51,.47-7.62,.31-2.11,.82-3.83,1.52-5.16,.7-1.33,1.52-2.3,2.46-2.93,.94-.62,2.11-.94,3.52-.94h96.33c1.72,0,3.44,.31,5.16,.94,1.72,.63,3.28,1.56,4.69,2.81,1.41,1.25,2.5,2.97,3.28,5.16,.78,2.19,1.17,4.69,1.17,7.5v115.55c0,4.06-.7,7.58-2.11,10.55-1.41,2.97-4.38,5.59-8.91,7.85-4.53,2.27-10.39,4.73-17.58,7.38-7.19,2.66-14.61,4.92-22.27,6.8-7.66,1.88-15.39,3.28-23.2,4.22-7.81,.94-15.55,1.41-23.2,1.41-23.44,0-44.38-3.63-62.81-10.9-18.44-7.27-34.02-17.61-46.76-31.05-12.74-13.44-22.46-29.53-29.18-48.28-6.72-18.75-10.08-39.69-10.08-62.81s3.63-45.86,10.9-65.39c7.27-19.53,17.5-36.17,30.7-49.92,13.2-13.75,29.06-24.41,47.58-31.99,18.52-7.58,39.02-11.37,61.52-11.37,11.56,0,22.42,1.02,32.58,3.05,10.16,2.03,19.18,4.42,27.07,7.15,7.89,2.74,14.53,5.71,19.92,8.91,5.39,3.2,9.1,5.82,11.13,7.85,2.03,2.03,3.44,4.38,4.22,7.03,.78,2.66,1.17,6.49,1.17,11.48Z"/><path d="M2485.16,456.95c0,1.88-.63,3.28-1.88,4.22-1.25,.94-2.97,1.64-5.16,2.11-2.19,.47-5.39,.7-9.61,.7s-7.31-.23-9.73-.7c-2.42-.47-4.18-1.17-5.27-2.11-1.09-.94-1.64-2.34-1.64-4.22v-21.09c-9.22,9.84-19.49,17.5-30.82,22.97-11.33,5.47-23.32,8.2-35.98,8.2-11.1,0-21.13-1.45-30.12-4.34-8.99-2.89-16.64-7.07-22.97-12.54-6.33-5.47-11.25-12.19-14.77-20.16s-5.27-17.03-5.27-27.19c0-11.87,2.42-22.19,7.27-30.94,4.84-8.75,11.8-16.01,20.86-21.8,9.06-5.78,20.16-10.11,33.28-13.01,13.12-2.89,27.89-4.34,44.3-4.34h29.06v-16.41c0-8.12-.86-15.31-2.58-21.56-1.72-6.25-4.49-11.44-8.32-15.59-3.83-4.14-8.79-7.27-14.88-9.38s-13.59-3.16-22.5-3.16c-9.53,0-18.09,1.14-25.66,3.4-7.58,2.27-14.22,4.77-19.92,7.5-5.71,2.74-10.47,5.24-14.3,7.5-3.83,2.27-6.68,3.4-8.55,3.4-1.25,0-2.34-.31-3.28-.94-.94-.62-1.76-1.56-2.46-2.81-.7-1.25-1.21-2.85-1.52-4.8-.31-1.95-.47-4.1-.47-6.45,0-3.9,.27-6.99,.82-9.26,.55-2.26,1.88-4.41,3.98-6.45,2.11-2.03,5.74-4.41,10.9-7.15,5.16-2.73,11.09-5.23,17.81-7.5,6.72-2.26,14.06-4.14,22.03-5.62,7.97-1.48,16.01-2.23,24.14-2.23,15.15,0,28.04,1.72,38.67,5.16,10.62,3.44,19.22,8.48,25.78,15.12,6.56,6.64,11.33,14.88,14.3,24.73,2.97,9.84,4.45,21.33,4.45,34.45v142.27Zm-38.44-96.33h-33.05c-10.63,0-19.84,.9-27.66,2.7-7.81,1.8-14.3,4.45-19.45,7.97s-8.95,7.73-11.37,12.66c-2.42,4.92-3.63,10.59-3.63,16.99,0,10.94,3.48,19.65,10.43,26.13,6.95,6.49,16.68,9.73,29.18,9.73,10.16,0,19.57-2.58,28.24-7.73s17.77-13.04,27.3-23.67v-44.77Z"/><path d="M2869.07,456.71c0,1.25-.31,2.31-.94,3.16-.63,.86-1.64,1.6-3.05,2.23-1.41,.62-3.36,1.09-5.86,1.41-2.5,.31-5.62,.47-9.38,.47s-7.11-.16-9.61-.47c-2.5-.32-4.49-.78-5.98-1.41-1.49-.62-2.54-1.37-3.16-2.23-.63-.86-.94-1.91-.94-3.16v-128.2c0-8.91-.78-17.03-2.34-24.38-1.56-7.34-4.06-13.67-7.5-18.98-3.44-5.31-7.81-9.38-13.12-12.19-5.31-2.81-11.56-4.22-18.75-4.22-8.91,0-17.85,3.44-26.84,10.31-8.99,6.88-18.87,16.96-29.65,30.23v147.42c0,1.25-.31,2.31-.94,3.16-.63,.86-1.68,1.6-3.16,2.23-1.49,.62-3.48,1.09-5.98,1.41-2.5,.31-5.62,.47-9.38,.47s-6.68-.16-9.26-.47c-2.58-.32-4.61-.78-6.09-1.41-1.49-.62-2.5-1.37-3.05-2.23-.55-.86-.82-1.91-.82-3.16v-128.2c0-8.91-.86-17.03-2.58-24.38-1.72-7.34-4.3-13.67-7.73-18.98-3.44-5.31-7.77-9.38-13.01-12.19-5.24-2.81-11.45-4.22-18.63-4.22-8.91,0-17.89,3.44-26.95,10.31-9.06,6.88-18.91,16.96-29.53,30.23v147.42c0,1.25-.31,2.31-.94,3.16-.63,.86-1.64,1.6-3.05,2.23-1.41,.62-3.36,1.09-5.86,1.41-2.5,.31-5.71,.47-9.61,.47s-6.88-.16-9.38-.47c-2.5-.32-4.49-.78-5.98-1.41-1.49-.62-2.5-1.37-3.05-2.23-.55-.86-.82-1.91-.82-3.16V245.77c0-1.25,.23-2.3,.7-3.16,.47-.86,1.41-1.64,2.81-2.34s3.2-1.17,5.39-1.41c2.19-.23,5.08-.35,8.67-.35s6.29,.12,8.55,.35c2.26,.23,4.02,.7,5.27,1.41,1.25,.7,2.15,1.49,2.7,2.34,.55,.86,.82,1.92,.82,3.16v27.89c11.87-13.28,23.4-23.01,34.57-29.18,11.17-6.17,22.46-9.26,33.87-9.26,8.75,0,16.6,1.02,23.55,3.05,6.95,2.03,13.08,4.89,18.4,8.55,5.31,3.67,9.84,8.05,13.59,13.12,3.75,5.08,6.87,10.74,9.38,16.99,7.03-7.65,13.71-14.14,20.04-19.45,6.33-5.31,12.42-9.61,18.28-12.89s11.56-5.66,17.11-7.15c5.54-1.48,11.13-2.23,16.76-2.23,13.59,0,25,2.38,34.22,7.15,9.22,4.77,16.68,11.13,22.38,19.1,5.7,7.97,9.76,17.31,12.19,28.01,2.42,10.7,3.63,21.99,3.63,33.87v133.36Z"/><path d="M3119.61,342.1c0,6.09-1.53,10.43-4.59,13.01-3.06,2.58-6.55,3.87-10.48,3.87h-138.92c0,11.72,1.18,22.27,3.53,31.64s6.28,17.42,11.78,24.14c5.49,6.72,12.64,11.88,21.43,15.47,8.79,3.6,19.55,5.39,32.27,5.39,10.05,0,19-.82,26.85-2.46s14.64-3.48,20.37-5.51c5.73-2.03,10.44-3.87,14.13-5.51s6.48-2.46,8.36-2.46c1.1,0,2.08,.27,2.94,.82,.86,.55,1.53,1.37,2,2.46,.47,1.09,.82,2.62,1.06,4.57,.23,1.96,.36,4.34,.36,7.15,0,2.03-.08,3.79-.23,5.27-.16,1.49-.35,2.81-.59,3.98s-.63,2.23-1.17,3.16c-.55,.94-1.25,1.84-2.11,2.7-.86,.86-3.4,2.27-7.62,4.22-4.22,1.96-9.69,3.87-16.41,5.74-6.72,1.88-14.49,3.55-23.32,5.04-8.83,1.48-18.24,2.23-28.24,2.23-17.34,0-32.54-2.42-45.59-7.27-13.05-4.84-24.02-12.03-32.93-21.56-8.91-9.53-15.63-21.48-20.16-35.86-4.53-14.37-6.8-31.09-6.8-50.16s2.34-34.41,7.03-48.87c4.69-14.45,11.44-26.72,20.27-36.8,8.83-10.08,19.49-17.81,31.99-23.2,12.5-5.39,26.48-8.09,41.95-8.09,16.56,0,30.66,2.66,42.3,7.97,11.64,5.31,21.21,12.46,28.71,21.45,7.5,8.99,13.01,19.53,16.52,31.64,3.52,12.11,5.27,25.04,5.27,38.79v7.03Zm-38.91-11.48c.47-20.31-4.05-36.25-13.56-47.81-9.51-11.56-23.62-17.34-42.33-17.34-9.59,0-18,1.8-25.23,5.39-7.23,3.6-13.29,8.36-18.16,14.3-4.88,5.94-8.65,12.85-11.32,20.74-2.67,7.89-4.16,16.14-4.48,24.73h115.08Z"/></g><g><path d="M1145.72,644.44v-26.89c0-2.81-.18-6.5-.53-11.07h11.07c-.35,4.57-.53,8.44-.53,11.6v88.07c0,3.87,.17,9.31,.53,16.35h-11.07c.35-7.04,.53-13.71,.53-20.04-7.38,1.76-14.07,3.61-20.04,5.54-5.98,1.94-10.37,3.78-13.18,5.54-1.76-3.86-3.87-7.73-6.33-11.6,3.86-.35,10.19-1.58,18.98-3.69,8.78-2.11,15.64-3.86,20.57-5.27v-39.55h-18.98c-4.22,0-8.96,.18-14.24,.53v-10.02c5.27,.35,10.02,.53,14.24,.53h18.98Zm40.08-27.42v35.86c12.3-5.62,23.02-12.47,32.17-20.57,2.11,3.52,4.92,6.86,8.44,10.02-3.87,1.76-10.02,4.84-18.46,9.23-8.44,4.4-15.82,8-22.15,10.81v39.55c0,5.63,2.64,8.62,7.91,8.96h13.18c3.51,.35,5.97-.26,7.38-1.85,1.4-1.58,2.81-6.06,4.22-13.45,2.81,2.82,6.86,4.57,12.13,5.27-2.82,7.38-5.36,12.39-7.65,15.03-2.29,2.64-5.54,3.96-9.76,3.96h-23.2c-9.85,0-14.59-5.27-14.24-15.82v-87.01c0-3.51-.18-7.03-.53-10.55h11.07c-.35,3.52-.53,7.04-.53,10.55Z"/><path d="M1311.3,619.65h29c8.08,0,15.11-.17,21.09-.53v10.02c-5.98-.35-13.01-.53-21.09-.53h-75.41c-6.68,0-13.71,.18-21.09,.53v-10.02c7.03,.35,14.06,.53,21.09,.53h33.75c-1.05-3.16-3.52-7.91-7.38-14.24,4.22-1.4,7.56-2.81,10.02-4.22,3.51,5.63,6.86,11.78,10.02,18.46Zm-58.54,99.67c-2.82-3.16-5.63-5.98-8.44-8.44,14.77-10.89,25.13-20.74,31.11-29.53,2.46,3.16,5.27,5.98,8.44,8.44-6.33,6.33-16.7,16.17-31.11,29.53Zm89.12-59.06c0,7.74,.17,13.71,.53,17.93h-33.22v32.17c0,5.97-1.58,9.84-4.75,11.6-3.16,1.75-9.15,3.16-17.93,4.22-1.05-4.22-2.82-8.09-5.27-11.6,7.73,.35,12.57,.17,14.5-.53,1.93-.71,2.9-3.16,2.9-7.38v-28.48h-34.8c.35-5.97,.53-12.66,.53-20.04s-.18-13.53-.53-18.46h78.57c-.35,5.63-.53,12.48-.53,20.57Zm-10.55,8.96v-20.57h-56.43v20.57h56.43Zm15.56,29.27c5.45,4.4,9.57,8,12.39,10.81-2.82,2.82-5.63,5.8-8.44,8.96-4.93-5.63-14.95-14.41-30.06-26.37,2.11-2.46,4.39-5.27,6.86-8.44,7.38,5.63,13.79,10.64,19.25,15.03Z"/><path d="M1431.01,640.74c.35-12.3,.44-20.57,.26-24.79-.18-4.22-.45-8.26-.79-12.13,4.22,.71,8.96,1.24,14.24,1.58-1.05,3.52-1.85,8.62-2.37,15.29-.53,6.68-.79,13.37-.79,20.04h26.89c9.49,0,18.28-.35,26.37-1.05v11.6c-7.04-.35-14.24-.53-21.62-.53h-31.11c1.4,5.98,3.86,12.05,7.38,18.19,3.51,6.16,7.12,11.6,10.81,16.35s8.78,9.76,15.29,15.03c6.5,5.27,13.62,9.67,21.36,13.18-2.82,2.11-5.63,5.62-8.44,10.55-6.33-3.52-12.57-7.91-18.72-13.18-6.16-5.27-12.31-12.21-18.46-20.83-6.16-8.61-10.81-16.61-13.97-23.99-2.82,7.74-5.8,14.16-8.96,19.25-3.16,5.1-6.59,9.76-10.28,13.97s-8.44,8.44-14.24,12.66-12.39,8.44-19.78,12.66c-2.82-4.22-5.98-7.91-9.49-11.07,7.38-2.46,14.67-5.97,21.88-10.55,7.2-4.56,13.09-9.76,17.67-15.56,4.56-5.8,8.26-11.87,11.07-18.19,2.81-6.33,4.56-12.47,5.27-18.46h-29c-8.44,0-15.12,.18-20.04,.53v-11.6c4.92,.35,11.6,.71,20.04,1.05h29.53Z"/><path d="M1607.67,656.04v11.07c-4.93,1.05-9.41,2.73-13.45,5.01-4.05,2.29-8.7,4.66-13.97,7.12v4.75h33.22c4.22,0,9.67-.17,16.35-.53v10.55c-7.04-.35-12.48-.53-16.35-.53h-33.22v21.62c0,4.92-1.94,7.99-5.8,9.23-3.87,1.23-10.2,2.19-18.98,2.9-1.05-3.87-2.82-7.74-5.27-11.6h14.24c3.51,0,5.27-1.94,5.27-5.8v-16.35h-36.39c-5.63,0-11.96,.18-18.98,.53v-10.55c7.38,.35,13.53,.53,18.46,.53h36.91c0-2.81-.35-5.97-1.05-9.49l18.98-9.49h-29c-6.68,0-14.24,.18-22.68,.53v-10.02c7.73,.35,15.11,.53,22.15,.53h49.57Zm-7.91-23.73h29c-.35,3.16-.53,6.86-.53,11.07s.17,8.26,.53,12.13h-11.07v-14.24h-91.23v14.77h-11.07c.35-4.22,.53-8.44,.53-12.66s-.18-7.91-.53-11.07h73.3c2.81-4.92,5.71-10.1,8.7-15.56,2.98-5.45,5.36-10.81,7.12-16.08,5.62,3.16,10.02,5.46,13.18,6.86-7.04,8.09-13.01,16.35-17.93,24.79Zm-52.21-10.02c-3.87,2.82-6.86,5.46-8.96,7.91-4.57-6.67-9.85-12.47-15.82-17.4,3.86-2.81,6.67-5.09,8.44-6.86,6.33,5.27,11.77,10.73,16.35,16.35Zm32.7-1.58c-3.16,2.46-6.51,4.75-10.02,6.86-2.82-5.62-7.04-11.95-12.66-18.98,3.51-2.46,6.67-4.56,9.49-6.33,6.67,8.44,11.07,14.59,13.18,18.46Z"/><path d="M1648.8,615.43c4.56,.35,9.49,.53,14.77,.53h37.97c-1.05-4.22-2.29-7.91-3.69-11.07,4.22-.35,8.44-1.05,12.66-2.11,.7,3.52,1.93,7.91,3.69,13.18h36.39c4.92,0,10.02-.17,15.29-.53v9.49c-5.27-.35-11.78-.53-19.51-.53h-82.27c-5.63,0-10.73,.18-15.29,.53v-9.49Zm113.91,97.56c.35,5.27-1.58,8.61-5.8,10.02-4.22,1.4-8.26,2.28-12.13,2.64-1.41-4.22-3.16-7.91-5.27-11.07,3.51,0,6.67-.09,9.49-.26,2.81-.18,4.04-2.55,3.69-7.12v-33.22h-89.65v50.62h-10.55c.35-4.93,.53-14.94,.53-30.06s-.18-24.96-.53-28.48h110.74c-.35,4.93-.53,10.37-.53,16.35v30.59Zm-19.51-67.5c0,3.87,.17,7.91,.53,12.13h-74.36c.35-3.16,.53-7.2,.53-12.13s-.18-9.31-.53-13.18h74.36c-.35,4.57-.53,8.96-.53,13.18Zm-9.49,4.22v-9.49h-53.79v9.49h53.79Zm.53,45.88c0,4.22,.17,8.44,.53,12.66h-53.79c.7-4.22,1.05-8.44,1.05-12.66,0-4.56-.35-8.78-1.05-12.66h53.79c-.35,3.87-.53,8.09-.53,12.66Zm-9.49,5.27v-10.55h-34.28v10.55h34.28Z"/><path d="M1789.6,667.11c-3.52-.7-6.68-1.4-9.49-2.11,2.46-9.14,4.39-20.04,5.8-32.7,2.81,.35,5.97,.88,9.49,1.58-2.11,14.77-4.05,25.84-5.8,33.22Zm20.57-42.71v79.1c0,7.38,.17,14.77,.53,22.15h-11.07c.35-7.38,.53-14.77,.53-22.15v-79.1c0-7.38-.18-14.24-.53-20.57h11.07c-.35,7.04-.53,13.89-.53,20.57Zm17.93,24.79c-3.16,1.05-5.98,2.29-8.44,3.69-2.46-7.73-5.1-14.94-7.91-21.62,2.81-1.4,5.45-2.64,7.91-3.69,2.81,5.63,5.62,12.84,8.44,21.62Zm15.82-15.82h16.35v-11.07c0-5.97-.18-11.77-.53-17.4h11.07c-.35,5.63-.53,11.43-.53,17.4v11.07h10.55c4.56,0,10.02-.17,16.35-.53v10.02c-6.33-.35-11.78-.53-16.35-.53h-10.55v27.95h9.49c5.27,0,10.55-.17,15.82-.53v10.02c-5.27-.35-10.55-.53-15.82-.53h-9.49v32.7h14.24c5.97,0,11.77-.17,17.4-.53v9.49c-5.63-.35-11.43-.53-17.4-.53h-40.61c-6.33,0-12.48,.17-18.46,.53v-9.49c5.97,.35,11.95,.53,17.93,.53h16.88v-32.7h-8.96c-4.57,0-9.85,.18-15.82,.53v-10.02c4.56,.35,9.84,.53,15.82,.53h8.96v-27.95h-18.46c-1.05,5.27-3.87,13.01-8.44,23.2-3.87-2.11-7.04-3.34-9.49-3.69,4.92-10.19,8.08-18.98,9.49-26.37,1.4-7.38,2.64-14.41,3.69-21.09,3.51,1.05,7.03,1.94,10.55,2.64-1.76,6.33-2.99,11.78-3.69,16.35Z"/><path d="M1969.43,641.8c-11.6,.71-21.28,1.41-29,2.11-7.74,.71-13.54,1.58-17.4,2.64-1.05-4.22-2.29-7.91-3.69-11.07,2.46-1.05,6.24-4.83,11.34-11.34,5.09-6.5,9.23-13.45,12.39-20.83,1.75,1.41,3.69,2.46,5.8,3.16,2.11,.71,4.39,1.58,6.86,2.64-2.82,2.11-5.72,5.27-8.7,9.49-2.99,4.22-7.83,10.2-14.5,17.93,14.77-.7,25.66-1.23,32.7-1.58-4.22-5.62-7.21-9.31-8.96-11.07,2.46-1.4,5.27-3.34,8.44-5.8,2.81,3.87,5.54,7.38,8.17,10.55s6.06,7.21,10.28,12.13c-3.87,2.82-7.04,5.1-9.49,6.86-1.05-1.75-2.46-3.69-4.22-5.8Zm-6.33,71.98c.7-1.24,1.05-3.07,1.05-5.54v-7.38h-28.48v24.79h-10.02c.35-7.04,.53-13.36,.53-18.98v-35.33c0-6.33-.18-11.95-.53-16.88h48.52c-.35,5.27-.53,11.07-.53,17.4v44.3c-.35,3.86-1.94,6.33-4.75,7.38-2.82,1.05-6.86,1.93-12.13,2.64-.71-3.16-2.11-6.68-4.22-10.55,6.33,0,9.84-.62,10.55-1.85Zm1.05-40.87v-10.02h-28.48v10.02h28.48Zm0,19.51v-11.07h-28.48v11.07h28.48Zm32.17-66.45c4.92-2.11,9.67-4.3,14.24-6.59,4.56-2.28,9.14-5.18,13.71-8.7,2.81,3.52,5.27,6.51,7.38,8.96-2.11,.71-6.59,2.73-13.45,6.06-6.86,3.35-14.16,6.25-21.88,8.7v7.91c0,4.22,2.46,6.33,7.38,6.33h15.29c3.51,0,5.8-4.56,6.86-13.71,3.51,1.76,7.03,3.35,10.55,4.75-2.46,11.26-6.86,16.88-13.18,16.88h-23.73c-8.44,0-12.66-3.86-12.66-11.6v-26.89c0-4.22-.18-8.78-.53-13.71h10.55c-.35,2.46-.53,7.56-.53,15.29v6.33Zm23.47,57.48c-6.86,3.16-14.68,6.16-23.47,8.96v14.77c0,4.22,1.93,6.33,5.8,6.33h18.98c2.81-.71,4.75-5.09,5.8-13.18,2.81,1.41,6.33,2.82,10.55,4.22-2.46,11.25-6.51,16.88-12.13,16.88h-28.48c-6.68,0-10.02-3.35-10.02-10.02v-34.28c0-5.27-.18-10.02-.53-14.24h10.55c-.35,4.22-.53,8.79-.53,13.71v6.86c3.51-1.05,8.17-2.98,13.97-5.8,5.8-2.81,10.46-5.8,13.97-8.96,3.16,4.22,5.8,7.38,7.91,9.49-1.41,.35-5.54,2.11-12.39,5.27Z"/><path d="M2082.28,646.02c-.35,6.68-.53,13.71-.53,21.09v32.17c5.97-5.97,10.72-11.42,14.24-16.35,2.11,2.82,4.56,5.63,7.38,8.44l-14.77,14.77c-4.57,4.57-8.96,9.14-13.18,13.71-2.46-3.16-4.75-5.98-6.86-8.44,2.46-2.81,3.51-7.03,3.16-12.66v-43.77c-9.49,0-16.53,.18-21.09,.53v-10.02c5.62,.35,9.49,.53,11.6,.53h20.04Zm8.44-17.93c-3.16,2.82-6.16,5.46-8.96,7.91-4.57-6.67-11.43-14.58-20.57-23.73,2.46-1.75,5.09-3.86,7.91-6.33,4.56,4.57,11.77,11.96,21.62,22.15Zm36.91,18.98v-26.37c0-7.03-.18-12.47-.53-16.35h11.07c-.35,4.57-.53,8.62-.53,12.13v30.59h21.62c4.22,0,8.78-.17,13.71-.53v10.02c-5.27-.35-9.67-.53-13.18-.53h-22.15v52.73c0,4.22,.17,9.31,.53,15.29h-11.07c.35-5.98,.53-10.9,.53-14.77v-53.26h-20.57c-5.27,0-10.55,.18-15.82,.53v-10.02c5.27,.35,10.19,.53,14.77,.53h21.62Z"/><path d="M2210.95,612.8h20.04c4.56,0,9.84-.17,15.82-.53v8.96c-5.98-.35-12.84-.53-20.57-.53,.7,2.46,1.75,5.8,3.16,10.02-3.87,.35-7.56,1.24-11.07,2.64-1.05-4.56-2.11-8.78-3.16-12.66h-10.02c-1.76,3.16-4.75,7.21-8.96,12.13-3.52-2.11-7.21-3.69-11.07-4.75,3.51-3.16,7.12-6.94,10.81-11.34,3.69-4.39,7.29-9.76,10.81-16.08,3.16,1.76,7.03,3.16,11.6,4.22-2.82,2.82-5.27,5.46-7.38,7.91Zm77.52,46.93c0,9.85,.17,18.11,.53,24.79h-12.66v9.49h14.24c5.62,0,11.95-.17,18.98-.53v8.96c-7.04-.35-13.37-.53-18.98-.53h-14.24c0,8.09,.17,15.99,.53,23.73h-11.6c.35-7.74,.53-15.64,.53-23.73h-30.06c-2.46,5.63-6.16,10.37-11.07,14.24-4.93,3.86-12.31,7.38-22.15,10.55-2.11-3.52-4.75-6.51-7.91-8.96,7.73-1.41,14.06-3.43,18.98-6.06,4.92-2.64,8.61-5.88,11.07-9.76h-18.98c-5.98,0-12.48,.18-19.51,.53v-8.96c7.38,.35,13.88,.53,19.51,.53h20.57c.7-2.81,1.05-5.97,1.05-9.49h-21.09c.35-6.33,.53-14.41,.53-24.26s-.18-18.46-.53-24.79h82.79c-.35,6.33-.53,14.42-.53,24.26Zm-10.55-10.55v-6.33h-60.64v6.33h60.64Zm0,13.71v-6.33h-60.64v6.33h60.64Zm0,14.24v-6.86h-60.64v6.86h60.64Zm-12.13,16.88v-9.49h-28.48c0,3.52-.18,6.68-.53,9.49h29Zm2.11-81.21h22.15c3.86,0,8.96-.17,15.29-.53v8.96c-5.63-.35-12.48-.53-20.57-.53l4.22,8.44c-3.52,.35-7.21,1.24-11.07,2.64-1.05-3.86-2.11-7.56-3.16-11.07h-12.66c-2.82,4.57-5.46,8.62-7.91,12.13-3.87-2.46-7.38-4.04-10.55-4.75,4.22-4.22,7.91-8.52,11.07-12.92,3.16-4.39,5.62-9.05,7.38-13.97,3.86,1.41,8.26,2.64,13.18,3.69-2.82,2.11-5.27,4.75-7.38,7.91Z"/><path d="M2343.31,626.77c-3.52,6.51-7.21,13.63-11.07,21.36h14.77c4.22-7.73,6.86-13.88,7.91-18.46,3.51,2.82,7.2,5.27,11.07,7.38-2.46,2.11-5.8,6.95-10.02,14.5-4.22,7.56-10.02,17.14-17.4,28.74,3.16-.35,10.89-1.58,23.2-3.69-1.05,3.52-1.76,6.86-2.11,10.02-4.22,0-9.15,.53-14.77,1.58-5.63,1.05-11.6,2.46-17.93,4.22-1.05-3.86-2.11-7.56-3.16-11.07,3.51-1.05,6.76-4.04,9.76-8.96,2.98-4.92,6.06-10.55,9.23-16.88-8.44,.35-15.29,1.58-20.57,3.69l-3.16-10.55c4.22-2.46,8.26-7.99,12.13-16.61,3.86-8.61,6.86-17.14,8.96-25.58,2.81,1.41,6.86,3.16,12.13,5.27-2.46,3.52-5.46,8.53-8.96,15.03Zm-1.05,78.84c5.97-1.05,12.13-2.46,18.46-4.22,.35,3.16,.7,6.16,1.05,8.96-3.52,.71-9.06,2.03-16.61,3.96-7.56,1.93-13.97,4.13-19.25,6.59-2.11-3.87-3.69-7.56-4.75-11.07,8.08-1.75,15.11-3.16,21.09-4.22Zm29.79,0c4.04-5.62,7.29-11.07,9.76-16.35,2.46,2.11,5.62,4.22,9.49,6.33-2.82,4.22-5.54,8.36-8.17,12.39-2.64,4.05-7.3,9.76-13.97,17.14-2.82-2.46-5.46-4.75-7.91-6.86,3.16-2.82,6.76-7.03,10.81-12.66Zm35.6-102.83c.7,2.82,2.11,8.62,4.22,17.4h30.06c-.35,3.16-.53,6.86-.53,11.07,0,3.87,.17,7.56,.53,11.07h-11.6v-13.71h-51.15v14.77h-10.55c.35-4.56,.53-8.78,.53-12.66s-.18-7.38-.53-10.55h31.11c-.71-4.92-1.94-10.02-3.69-15.29l11.6-2.11Zm17.93,66.97c6.67,0,12.83-.17,18.46-.53v10.02c-5.63-.35-11.26-.53-16.88-.53h-16.88v34.8c0,5.97-1.67,9.57-5.01,10.81-3.35,1.23-8.17,2.02-14.5,2.37,0-3.16-.71-6.86-2.11-11.07,4.22,.35,7.2,.35,8.96,0,1.75-.35,2.64-2.11,2.64-5.27v-31.64h-14.77c-5.63,0-11.26,.18-16.88,.53v-10.02c5.62,.35,11.25,.53,16.88,.53h40.08Zm-10.55-21.62c4.92,0,10.19-.17,15.82-.53v10.02c-5.63-.7-10.9-1.05-15.82-1.05h-18.46c-5.63,0-11.26,.35-16.88,1.05v-10.02c5.27,.35,10.72,.53,16.35,.53h18.98Zm30.59,63.81c-3.16,2.81-5.98,5.45-8.44,7.91-2.82-3.52-5.89-7.38-9.23-11.6-3.35-4.22-6.77-8.26-10.28-12.13,2.11-2.46,4.56-4.75,7.38-6.86,3.16,3.52,10.02,11.07,20.57,22.68Z"/><path d="M2521.03,611.21c10.19,12.31,18.46,20.75,24.79,25.31,6.33,4.57,12.13,8.09,17.4,10.55,5.27,2.46,10.37,4.4,15.29,5.8-3.52,3.87-5.8,7.56-6.86,11.07-7.04-3.16-13.37-6.5-18.98-10.02-5.63-3.51-11.34-7.99-17.14-13.45-5.8-5.45-12.39-12.92-19.78-22.41-6.68,9.49-13.27,17.32-19.78,23.47-6.51,6.16-12.05,10.99-16.61,14.5-4.57,3.52-9.67,7.04-15.29,10.55-.71-1.4-3.52-4.22-8.44-8.44,7.38-3.51,14.41-7.73,21.09-12.66,6.67-4.92,13.36-11.16,20.04-18.72,6.67-7.56,12.13-15.73,16.35-24.52,3.86,2.46,7.38,4.4,10.55,5.8l-2.64,3.16Zm34.8,87.54c0,12.66,.17,20.91,.53,24.79h-11.07v-10.02h-58.54v11.6h-10.55c.35-4.22,.53-12.31,.53-24.26s-.18-21.09-.53-26.37h80.16c-.35,3.52-.53,11.6-.53,24.26Zm-23.2-45.88c5.62,0,10.55-.17,14.77-.53v10.02c-4.57-.35-9.32-.53-14.24-.53h-29.53c-7.38,0-13.37,.18-17.93,.53v-10.02c6.67,.35,12.66,.53,17.93,.53h29Zm12.66,52.21v-22.15h-58.54v22.15h58.54Z"/><path d="M2644.43,641.8c-11.6,.71-21.28,1.41-29,2.11-7.74,.71-13.54,1.58-17.4,2.64-1.05-4.22-2.29-7.91-3.69-11.07,2.46-1.05,6.24-4.83,11.34-11.34,5.09-6.5,9.23-13.45,12.39-20.83,1.75,1.41,3.69,2.46,5.8,3.16,2.11,.71,4.39,1.58,6.86,2.64-2.82,2.11-5.72,5.27-8.7,9.49-2.99,4.22-7.83,10.2-14.5,17.93,14.77-.7,25.66-1.23,32.7-1.58-4.22-5.62-7.21-9.31-8.96-11.07,2.46-1.4,5.27-3.34,8.44-5.8,2.81,3.87,5.54,7.38,8.17,10.55s6.06,7.21,10.28,12.13c-3.87,2.82-7.04,5.1-9.49,6.86-1.05-1.75-2.46-3.69-4.22-5.8Zm-6.33,71.98c.7-1.24,1.05-3.07,1.05-5.54v-7.38h-28.48v24.79h-10.02c.35-7.04,.53-13.36,.53-18.98v-35.33c0-6.33-.18-11.95-.53-16.88h48.52c-.35,5.27-.53,11.07-.53,17.4v44.3c-.35,3.86-1.94,6.33-4.75,7.38-2.82,1.05-6.86,1.93-12.13,2.64-.71-3.16-2.11-6.68-4.22-10.55,6.33,0,9.84-.62,10.55-1.85Zm1.05-40.87v-10.02h-28.48v10.02h28.48Zm0,19.51v-11.07h-28.48v11.07h28.48Zm32.17-66.45c4.92-2.11,9.67-4.3,14.24-6.59,4.56-2.28,9.14-5.18,13.71-8.7,2.81,3.52,5.27,6.51,7.38,8.96-2.11,.71-6.59,2.73-13.45,6.06-6.86,3.35-14.16,6.25-21.88,8.7v7.91c0,4.22,2.46,6.33,7.38,6.33h15.29c3.51,0,5.8-4.56,6.86-13.71,3.51,1.76,7.03,3.35,10.55,4.75-2.46,11.26-6.86,16.88-13.18,16.88h-23.73c-8.44,0-12.66-3.86-12.66-11.6v-26.89c0-4.22-.18-8.78-.53-13.71h10.55c-.35,2.46-.53,7.56-.53,15.29v6.33Zm23.47,57.48c-6.86,3.16-14.68,6.16-23.47,8.96v14.77c0,4.22,1.93,6.33,5.8,6.33h18.98c2.81-.71,4.75-5.09,5.8-13.18,2.81,1.41,6.33,2.82,10.55,4.22-2.46,11.25-6.51,16.88-12.13,16.88h-28.48c-6.68,0-10.02-3.35-10.02-10.02v-34.28c0-5.27-.18-10.02-.53-14.24h10.55c-.35,4.22-.53,8.79-.53,13.71v6.86c3.51-1.05,8.17-2.98,13.97-5.8,5.8-2.81,10.46-5.8,13.97-8.96,3.16,4.22,5.8,7.38,7.91,9.49-1.41,.35-5.54,2.11-12.39,5.27Z"/><path d="M2788.92,643.38c-1.05,12.31-2.64,22.15-4.75,29.53s-5.01,14.16-8.7,20.3c-3.69,6.16-8.53,11.96-14.5,17.4-5.98,5.45-13.18,10.81-21.62,16.08-1.76-2.82-5.27-5.8-10.55-8.96,8.44-4.22,15.47-8.61,21.09-13.18,5.62-4.56,10.46-9.76,14.5-15.56,4.04-5.8,7.03-12.39,8.96-19.78,1.93-7.38,3.25-15.99,3.96-25.84h-15.29c-10.2,0-19.51,.18-27.95,.53v-10.55c8.44,.35,17.75,.53,27.95,.53h15.82v-15.82c0-4.92-.18-10.02-.53-15.29,3.86,.71,8.26,1.24,13.18,1.58-.71,3.16-1.15,7.74-1.32,13.71-.18,5.98-.26,11.26-.26,15.82h53.79c-1.41,18.98-2.29,32.09-2.64,39.29-.35,7.21-1.05,16-2.11,26.37-1.05,10.37-3.96,16.78-8.7,19.25-4.75,2.46-12.92,4.22-24.52,5.27-.35-4.22-2.11-8.79-5.27-13.71,10.19,.35,17.05-.17,20.57-1.58,3.51-1.4,5.54-4.04,6.06-7.91,.53-3.86,1.05-8.87,1.58-15.03,.53-6.15,1.32-20.3,2.37-42.45h-41.13Z"/><path d="M2942.9,641.8h17.93c7.38,0,15.29-.17,23.73-.53v10.02c-8.44-.7-16.35-1.05-23.73-1.05h-81.21c-6.33,0-12.84,.35-19.51,1.05v-10.02c7.03,.35,13.53,.53,19.51,.53h17.4c-1.76-4.56-4.4-8.96-7.91-13.18,3.16-1.05,6.67-2.64,10.55-4.75,3.16,4.93,5.97,9.67,8.44,14.24l-9.49,3.69h34.28c1.75-5.27,3.51-11.25,5.27-17.93,4.56,1.05,8.96,2.11,13.18,3.16-3.87,5.63-6.68,10.55-8.44,14.77Zm23.2,33.22c0,4.22,.17,9.32,.53,15.29h-25.84v15.82c.35,5.63,3.16,8.61,8.44,8.96h10.02c5.97-.35,9.49-1.41,10.55-3.16s2.28-5.45,3.69-11.07c2.81,2.11,6.67,4.05,11.6,5.8-2.11,5.63-4.48,9.84-7.12,12.66-2.64,2.81-6.25,4.22-10.81,4.22h-26.37c-6.68,0-10.02-3.16-10.02-9.49v-23.73h-15.82c-.71,6.33-2.37,11.6-5.01,15.82s-6.06,7.56-10.28,10.02c-4.22,2.46-8.96,4.56-14.24,6.33-5.27,1.75-10.9,3.16-16.88,4.22-1.05-3.52-2.99-6.86-5.8-10.02,16.88-2.11,27.69-5.27,32.43-9.49s7.46-9.84,8.17-16.88h-24.79c.35-4.92,.53-9.84,.53-14.77s-.18-10.19-.53-15.82h88.07c-.35,5.63-.53,10.73-.53,15.29Zm-34.28-60.64h26.89c5.27,0,11.25-.17,17.93-.53v9.49c-6.68-.35-12.66-.53-17.93-.53h-70.14c-8.44,0-16,.18-22.68,.53v-9.49c6.67,.35,14.06,.53,22.15,.53h31.11c-1.41-2.81-3.16-6.67-5.27-11.6,4.22-.35,8.61-.87,13.18-1.58,2.11,5.63,3.69,10.02,4.75,13.18Zm23.73,67.5v-13.71h-65.92v13.71h65.92Z"/><path d="M3091.09,683.46c0,2.46-.18,4.93-.53,7.38,0,4.22,.17,8.44,.53,12.66h-10.55v-16.35h-46.41v18.98h-10.55c.35-5.27,.53-10.37,.53-15.29,0-3.86-.18-6.86-.53-8.96-7.04,3.87-14.07,6.51-21.09,7.91-1.41-2.81-3.52-5.62-6.33-8.44,8.08-1.05,15.64-3.34,22.68-6.86,7.03-3.51,11.25-6.33,12.66-8.44-16.53,0-27.25,.18-32.17,.53v-8.44c5.27,.35,16.69,.53,34.28,.53v-6.86c-5.98,0-11.26,.18-15.82,.53v-8.44c5.27,.35,10.55,.53,15.82,.53v-6.86c-7.04,0-13.01,.18-17.93,.53v-8.44c4.92,.35,10.89,.53,17.93,.53,0-2.11-.18-4.39-.53-6.86h11.07c-.35,2.46-.53,4.75-.53,6.86h26.89c0-2.46-.18-4.92-.53-7.38h11.07c-.35,2.46-.53,4.93-.53,7.38,8.44,0,14.77-.17,18.98-.53v8.44c-5.27-.35-11.6-.53-18.98-.53v6.86c5.97,0,12.3-.17,18.98-.53v8.44c-6.33-.35-12.66-.53-18.98-.53v6.86c12.3,0,23.2-.17,32.7-.53v8.44c-9.15-.35-19.69-.53-31.64-.53,3.86,3.87,8.61,7.04,14.24,9.49,5.62,2.46,13.71,4.4,24.26,5.8-2.82,2.82-5.1,5.98-6.86,9.49-8.09-1.75-15.47-4.22-22.15-7.38Zm-77.52-51.68h-10.55c.35-3.16,.53-6.33,.53-9.49,0-3.51-.18-7.03-.53-10.55h52.73c-1.05-3.16-2.11-5.97-3.16-8.44,3.51-.7,6.86-1.58,10.02-2.64,1.4,3.52,2.64,7.21,3.69,11.07h47.99c-.35,3.52-.53,7.04-.53,10.55,0,3.16,.17,6.86,.53,11.07h-10.55v-14.24h-90.18v12.66Zm32.7,83.85c-5.27,2.81-9.94,4.92-13.97,6.33-4.05,1.4-10.46,2.81-19.25,4.22-1.05-2.82-3.16-5.98-6.33-9.49,9.14-1.05,15.82-2.03,20.04-2.9,4.22-.88,8.7-2.81,13.45-5.8,4.75-2.98,9.05-9.57,12.92-19.78,3.16,1.41,6.86,2.46,11.07,3.16-6.68,13.37-12.66,21.44-17.93,24.26Zm24.26-49.57h-25.84c-4.57,5.27-10.02,9.67-16.35,13.18h55.37c-5.63-3.51-10.02-7.91-13.18-13.18Zm0-21.62v-6.86h-26.89v6.86h26.89Zm0,14.24v-6.86h-26.89v6.86h26.89Zm30.06,58.01c-2.46,3.16-4.57,6.33-6.33,9.49-6.68-4.93-16.17-10.55-28.48-16.88,1.75-2.11,3.34-4.56,4.75-7.38,5.97,2.46,15.99,7.38,30.06,14.77Z"/></g></svg>