<?xml version="1.0" encoding="UTF-8"?><svg id="Layer_1" xmlns="http://www.w3.org/2000/svg" viewBox="0 0 3312.62 1015.54"><defs><style>.cls-1{fill:#2c3e50;}.cls-2{fill:#2980b9;}.cls-3{fill:#3498db;}.cls-4{fill:#7f8c8d;}</style></defs><polygon class="cls-2" points="267.59 860.79 0 707.02 0 317.54 267.59 174.47 267.59 860.79"/><polygon class="cls-3" points="289.09 42.62 289.09 967.76 480 915.8 480 94.58 289.09 42.62"/><polygon class="cls-3" points="507.42 728.03 507.42 908.33 960 785.15 960 668.04 507.42 728.03"/><polygon class="cls-3" points="960 225.23 507.42 102.05 507.42 681.24 960 634.22 960 225.23"/><g><path class="cls-4" d="M1336.49,383.2c0,1.56-.51,2.97-1.52,4.22-1.02,1.25-2.7,2.27-5.04,3.05-2.34,.78-5.47,1.41-9.38,1.88-3.91,.47-8.83,.7-14.77,.7s-11.13-.23-15.12-.7-7.11-1.09-9.38-1.88c-2.27-.78-3.91-1.79-4.92-3.05-1.02-1.25-1.52-2.66-1.52-4.22v-122.58h-113.44v122.58c0,1.56-.47,2.97-1.41,4.22-.94,1.25-2.58,2.27-4.92,3.05-2.34,.78-5.47,1.41-9.38,1.88-3.91,.47-8.91,.7-15,.7s-10.9-.23-14.88-.7-7.15-1.09-9.49-1.88c-2.34-.78-4.02-1.79-5.04-3.05-1.02-1.25-1.52-2.66-1.52-4.22V96.8c0-1.56,.51-2.97,1.52-4.22,1.01-1.25,2.7-2.26,5.04-3.05,2.34-.78,5.51-1.41,9.49-1.88s8.94-.7,14.88-.7,11.09,.23,15,.7c3.9,.47,7.03,1.09,9.38,1.88,2.34,.78,3.98,1.8,4.92,3.05,.94,1.25,1.41,2.66,1.41,4.22v111.33h113.44V96.8c0-1.56,.51-2.97,1.52-4.22,1.01-1.25,2.66-2.26,4.92-3.05,2.26-.78,5.39-1.41,9.38-1.88s9.02-.7,15.12-.7,10.86,.23,14.77,.7c3.9,.47,7.03,1.09,9.38,1.88,2.34,.78,4.02,1.8,5.04,3.05,1.01,1.25,1.52,2.66,1.52,4.22V383.2Z"/><path class="cls-4" d="M1610.24,180.47c0,17.03-2.66,32.11-7.97,45.23-5.31,13.12-13.05,24.18-23.2,33.16-10.16,8.99-22.62,15.82-37.38,20.51s-32.15,7.03-52.15,7.03h-25.31v96.8c0,1.56-.51,2.97-1.52,4.22-1.02,1.25-2.7,2.27-5.04,3.05-2.34,.78-5.47,1.41-9.38,1.88-3.91,.47-8.91,.7-15,.7s-10.9-.23-14.88-.7-7.15-1.09-9.49-1.88c-2.34-.78-3.98-1.79-4.92-3.05-.94-1.25-1.41-2.66-1.41-4.22V110.39c0-7.34,1.91-12.85,5.74-16.52,3.83-3.67,8.87-5.51,15.12-5.51h71.48c7.19,0,14.02,.27,20.51,.82,6.48,.55,14.26,1.72,23.32,3.52,9.06,1.8,18.24,5.12,27.54,9.96,9.29,4.84,17.23,10.98,23.79,18.4,6.56,7.42,11.56,16.09,15,26.02,3.44,9.92,5.16,21.06,5.16,33.4Zm-64.45,4.45c0-10.62-1.88-19.37-5.62-26.25-3.75-6.87-8.36-11.95-13.83-15.23-5.47-3.28-11.21-5.35-17.23-6.21-6.02-.86-12.23-1.29-18.63-1.29h-26.25v102.89h27.66c9.84,0,18.08-1.33,24.73-3.98,6.64-2.66,12.07-6.36,16.29-11.13,4.22-4.76,7.42-10.47,9.61-17.11,2.19-6.64,3.28-13.86,3.28-21.68Z"/><path class="cls-4" d="M1867.82,345.7c0,3.91-.12,7.23-.35,9.96-.23,2.74-.59,5.08-1.05,7.03-.47,1.96-1.09,3.63-1.88,5.04-.78,1.41-2.03,3.01-3.75,4.8-1.72,1.8-5.04,4.1-9.96,6.91s-10.94,5.51-18.05,8.09c-7.11,2.58-15.23,4.72-24.38,6.45-9.14,1.72-19.02,2.58-29.65,2.58-20.78,0-39.53-3.2-56.25-9.61-16.72-6.41-30.94-15.97-42.66-28.71-11.72-12.73-20.71-28.63-26.95-47.7-6.25-19.06-9.38-41.25-9.38-66.56s3.44-48.67,10.31-68.67c6.87-20,16.48-36.8,28.83-50.39,12.34-13.59,27.15-23.91,44.41-30.94,17.26-7.03,36.29-10.55,57.07-10.55,8.44,0,16.56,.7,24.38,2.11,7.81,1.41,15.04,3.24,21.68,5.51,6.64,2.27,12.62,4.89,17.93,7.85,5.31,2.97,9.02,5.51,11.13,7.62s3.55,3.87,4.34,5.27c.78,1.41,1.41,3.2,1.88,5.39,.47,2.19,.82,4.77,1.05,7.73,.23,2.97,.35,6.64,.35,11.02,0,4.69-.16,8.67-.47,11.95-.31,3.28-.86,5.94-1.64,7.97-.78,2.03-1.72,3.52-2.81,4.45-1.09,.94-2.34,1.41-3.75,1.41-2.34,0-5.31-1.37-8.91-4.1-3.6-2.73-8.24-5.78-13.95-9.14-5.71-3.36-12.5-6.41-20.39-9.14-7.89-2.73-17.31-4.1-28.24-4.1-12.03,0-22.77,2.46-32.23,7.38-9.46,4.92-17.5,11.95-24.14,21.09-6.64,9.14-11.68,20.2-15.12,33.16-3.44,12.97-5.16,27.58-5.16,43.83,0,17.81,1.83,33.24,5.51,46.29,3.67,13.05,8.91,23.79,15.7,32.23s15,14.73,24.61,18.87c9.61,4.14,20.43,6.21,32.46,6.21,10.94,0,20.39-1.29,28.36-3.87s14.8-5.43,20.51-8.55c5.7-3.12,10.39-5.94,14.06-8.44,3.67-2.5,6.52-3.75,8.55-3.75,1.56,0,2.81,.31,3.75,.94,.94,.63,1.72,1.88,2.34,3.75,.62,1.88,1.09,4.49,1.41,7.85,.31,3.36,.47,7.85,.47,13.48Z"/><path class="cls-4" d="M2147.19,129.61c0,2.97-.16,5.59-.47,7.85-.31,2.27-.78,4.14-1.41,5.62-.63,1.49-1.41,2.54-2.34,3.16-.94,.63-1.96,.94-3.05,.94-1.88,0-5-1.48-9.38-4.45-4.38-2.97-10.24-6.25-17.58-9.84-7.35-3.59-16.13-6.87-26.37-9.84-10.24-2.97-22.38-4.45-36.45-4.45-16.72,0-31.72,3.05-45,9.14-13.28,6.09-24.53,14.53-33.75,25.31-9.22,10.78-16.29,23.59-21.21,38.44-4.92,14.85-7.38,30.94-7.38,48.28,0,19.38,2.7,36.56,8.09,51.56s12.85,27.66,22.38,37.97c9.53,10.31,20.9,18.13,34.1,23.44,13.2,5.31,27.69,7.97,43.48,7.97,9.38,0,18.87-1.13,28.48-3.4,9.61-2.26,18.55-5.66,26.84-10.2v-88.36h-70.31c-2.66,0-4.65-1.33-5.98-3.98-1.33-2.66-1.99-6.8-1.99-12.42,0-2.97,.15-5.51,.47-7.62,.31-2.11,.82-3.83,1.52-5.16,.7-1.33,1.52-2.3,2.46-2.93,.94-.62,2.11-.94,3.52-.94h96.33c1.72,0,3.44,.31,5.16,.94,1.72,.63,3.28,1.56,4.69,2.81,1.41,1.25,2.5,2.97,3.28,5.16,.78,2.19,1.17,4.69,1.17,7.5v115.55c0,4.06-.7,7.58-2.11,10.55-1.41,2.97-4.38,5.59-8.91,7.85-4.53,2.27-10.39,4.73-17.58,7.38-7.19,2.66-14.61,4.92-22.27,6.8-7.66,1.88-15.39,3.28-23.2,4.22-7.81,.94-15.55,1.41-23.2,1.41-23.44,0-44.38-3.63-62.81-10.9-18.44-7.27-34.02-17.61-46.76-31.05-12.74-13.44-22.46-29.53-29.18-48.28-6.72-18.75-10.08-39.69-10.08-62.81s3.63-45.86,10.9-65.39c7.27-19.53,17.5-36.17,30.7-49.92,13.2-13.75,29.06-24.41,47.58-31.99,18.52-7.58,39.02-11.37,61.52-11.37,11.56,0,22.42,1.02,32.58,3.05,10.16,2.03,19.18,4.42,27.07,7.15,7.89,2.74,14.53,5.71,19.92,8.91,5.39,3.2,9.1,5.82,11.13,7.85,2.03,2.03,3.44,4.38,4.22,7.03,.78,2.66,1.17,6.49,1.17,11.48Z"/><path class="cls-4" d="M2376.65,386.02c0,1.88-.63,3.28-1.88,4.22-1.25,.94-2.97,1.64-5.16,2.11-2.19,.47-5.39,.7-9.61,.7s-7.31-.23-9.73-.7c-2.42-.47-4.18-1.17-5.27-2.11-1.09-.94-1.64-2.34-1.64-4.22v-21.09c-9.22,9.84-19.49,17.5-30.82,22.97-11.33,5.47-23.32,8.2-35.98,8.2-11.1,0-21.13-1.45-30.12-4.34-8.99-2.89-16.64-7.07-22.97-12.54-6.33-5.47-11.25-12.19-14.77-20.16s-5.27-17.03-5.27-27.19c0-11.87,2.42-22.19,7.27-30.94,4.84-8.75,11.8-16.01,20.86-21.8,9.06-5.78,20.16-10.11,33.28-13.01,13.12-2.89,27.89-4.34,44.3-4.34h29.06v-16.41c0-8.12-.86-15.31-2.58-21.56-1.72-6.25-4.49-11.44-8.32-15.59-3.83-4.14-8.79-7.27-14.88-9.38s-13.59-3.16-22.5-3.16c-9.53,0-18.09,1.14-25.66,3.4-7.58,2.27-14.22,4.77-19.92,7.5-5.71,2.74-10.47,5.24-14.3,7.5-3.83,2.27-6.68,3.4-8.55,3.4-1.25,0-2.34-.31-3.28-.94-.94-.62-1.76-1.56-2.46-2.81-.7-1.25-1.21-2.85-1.52-4.8-.31-1.95-.47-4.1-.47-6.45,0-3.9,.27-6.99,.82-9.26,.55-2.26,1.88-4.41,3.98-6.45,2.11-2.03,5.74-4.41,10.9-7.15,5.16-2.73,11.09-5.23,17.81-7.5,6.72-2.26,14.06-4.14,22.03-5.62,7.97-1.48,16.01-2.23,24.14-2.23,15.15,0,28.04,1.72,38.67,5.16,10.62,3.44,19.22,8.48,25.78,15.12,6.56,6.64,11.33,14.88,14.3,24.73,2.97,9.84,4.45,21.33,4.45,34.45v142.27Zm-38.44-96.33h-33.05c-10.63,0-19.84,.9-27.66,2.7-7.81,1.8-14.3,4.45-19.45,7.97s-8.95,7.73-11.37,12.66c-2.42,4.92-3.63,10.59-3.63,16.99,0,10.94,3.48,19.65,10.43,26.13,6.95,6.49,16.68,9.73,29.18,9.73,10.16,0,19.57-2.58,28.24-7.73s17.77-13.04,27.3-23.67v-44.77Z"/><path class="cls-4" d="M2760.55,385.78c0,1.25-.31,2.31-.94,3.16-.63,.86-1.64,1.6-3.05,2.23s-3.36,1.09-5.86,1.41c-2.5,.31-5.62,.47-9.38,.47s-7.11-.16-9.61-.47c-2.5-.31-4.49-.78-5.98-1.41-1.49-.62-2.54-1.37-3.16-2.23-.63-.86-.94-1.91-.94-3.16v-128.2c0-8.91-.78-17.03-2.34-24.38-1.56-7.34-4.06-13.67-7.5-18.98-3.44-5.31-7.81-9.38-13.12-12.19-5.31-2.81-11.56-4.22-18.75-4.22-8.91,0-17.85,3.44-26.84,10.31-8.99,6.88-18.87,16.96-29.65,30.23v147.42c0,1.25-.31,2.31-.94,3.16-.63,.86-1.68,1.6-3.16,2.23-1.49,.62-3.48,1.09-5.98,1.41-2.5,.31-5.62,.47-9.38,.47s-6.68-.16-9.26-.47c-2.58-.31-4.61-.78-6.09-1.41-1.49-.62-2.5-1.37-3.05-2.23-.55-.86-.82-1.91-.82-3.16v-128.2c0-8.91-.86-17.03-2.58-24.38-1.72-7.34-4.3-13.67-7.73-18.98-3.44-5.31-7.77-9.38-13.01-12.19-5.24-2.81-11.45-4.22-18.63-4.22-8.91,0-17.89,3.44-26.95,10.31-9.06,6.88-18.91,16.96-29.53,30.23v147.42c0,1.25-.31,2.31-.94,3.16-.63,.86-1.64,1.6-3.05,2.23s-3.36,1.09-5.86,1.41c-2.5,.31-5.71,.47-9.61,.47s-6.88-.16-9.38-.47c-2.5-.31-4.49-.78-5.98-1.41-1.49-.62-2.5-1.37-3.05-2.23-.55-.86-.82-1.91-.82-3.16V174.84c0-1.25,.23-2.3,.7-3.16,.47-.86,1.41-1.64,2.81-2.34s3.2-1.17,5.39-1.41c2.19-.23,5.08-.35,8.67-.35s6.29,.12,8.55,.35c2.26,.23,4.02,.7,5.27,1.41,1.25,.7,2.15,1.49,2.7,2.34,.55,.86,.82,1.92,.82,3.16v27.89c11.87-13.28,23.4-23.01,34.57-29.18,11.17-6.17,22.46-9.26,33.87-9.26,8.75,0,16.6,1.02,23.55,3.05,6.95,2.03,13.08,4.89,18.4,8.55,5.31,3.67,9.84,8.05,13.59,13.12,3.75,5.08,6.87,10.74,9.38,16.99,7.03-7.65,13.71-14.14,20.04-19.45,6.33-5.31,12.42-9.61,18.28-12.89s11.56-5.66,17.11-7.15c5.54-1.48,11.13-2.23,16.76-2.23,13.59,0,25,2.38,34.22,7.15,9.22,4.77,16.68,11.13,22.38,19.1,5.7,7.97,9.76,17.31,12.19,28.01,2.42,10.7,3.63,21.99,3.63,33.87v133.36Z"/><path class="cls-4" d="M3011.1,271.17c0,6.09-1.53,10.43-4.59,13.01-3.06,2.58-6.55,3.87-10.48,3.87h-138.92c0,11.72,1.18,22.27,3.53,31.64s6.28,17.42,11.78,24.14c5.49,6.72,12.64,11.88,21.43,15.47,8.79,3.6,19.55,5.39,32.27,5.39,10.05,0,19-.82,26.85-2.46s14.64-3.48,20.37-5.51c5.73-2.03,10.44-3.87,14.13-5.51s6.48-2.46,8.36-2.46c1.1,0,2.08,.27,2.94,.82,.86,.55,1.53,1.37,2,2.46,.47,1.09,.82,2.62,1.06,4.57,.23,1.96,.36,4.34,.36,7.15,0,2.03-.08,3.79-.23,5.27-.16,1.49-.35,2.81-.59,3.98s-.63,2.23-1.17,3.16c-.55,.94-1.25,1.84-2.11,2.7-.86,.86-3.4,2.27-7.62,4.22-4.22,1.96-9.69,3.87-16.41,5.74-6.72,1.88-14.49,3.55-23.32,5.04-8.83,1.48-18.24,2.23-28.24,2.23-17.34,0-32.54-2.42-45.59-7.27-13.05-4.84-24.02-12.03-32.93-21.56-8.91-9.53-15.63-21.48-20.16-35.86-4.53-14.37-6.8-31.09-6.8-50.16s2.34-34.41,7.03-48.87c4.69-14.45,11.44-26.72,20.27-36.8,8.83-10.08,19.49-17.81,31.99-23.2,12.5-5.39,26.48-8.09,41.95-8.09,16.56,0,30.66,2.66,42.3,7.97,11.64,5.31,21.21,12.46,28.71,21.45,7.5,8.99,13.01,19.53,16.52,31.64,3.52,12.11,5.27,25.04,5.27,38.79v7.03Zm-38.91-11.48c.47-20.31-4.05-36.25-13.56-47.81-9.51-11.56-23.62-17.34-42.33-17.34-9.59,0-18,1.8-25.23,5.39-7.23,3.6-13.29,8.36-18.16,14.3-4.88,5.94-8.65,12.85-11.32,20.74-2.67,7.89-4.16,16.14-4.48,24.73h115.08Z"/></g><g><path class="cls-1" d="M1314.62,634.04c0,13.34-2.5,26.54-7.5,39.62-5,13.09-12.75,24.79-23.25,35.12-10.5,10.34-23.92,18.71-40.25,25.12-16.34,6.42-35.84,9.62-58.5,9.62h-40.5v117.25h-44.5v-326.75h92c16.16,0,31.66,1.79,46.5,5.38,14.83,3.59,27.88,9.38,39.12,17.38s20.21,18.34,26.88,31c6.66,12.67,10,28.09,10,46.25Zm-46.25,2c0-21-6.88-37.08-20.62-48.25-13.75-11.16-32.96-16.75-57.62-16.75h-45.5v134.5h41.5c26.33,0,46.62-5.75,60.88-17.25s21.38-28.91,21.38-52.25Z"/><path class="cls-1" d="M1467.62,543.29h-74.25v-35.75h118.25v317h74.75v36.25h-201.25v-36.25h82.5v-281.25Z"/><path class="cls-1" d="M1824.87,860.79l-1-33.75c-13.67,13.5-27.54,23.25-41.62,29.25-14.09,6-28.88,9-44.38,9-14.34,0-26.59-1.84-36.75-5.5-10.17-3.66-18.54-8.71-25.12-15.12-6.59-6.41-11.42-13.96-14.5-22.62-3.09-8.66-4.62-18.08-4.62-28.25,0-25.16,9.38-44.88,28.12-59.12s46.46-21.38,83.12-21.38h52v-22c0-14.83-4.75-26.71-14.25-35.62-9.5-8.91-24-13.38-43.5-13.38-14.17,0-28.12,1.59-41.88,4.75-13.75,3.17-27.96,7.67-42.62,13.5v-39.25c5.5-2,11.62-3.96,18.38-5.88,6.75-1.91,13.88-3.62,21.38-5.12s15.33-2.71,23.5-3.62c8.16-.91,16.41-1.38,24.75-1.38,15.16,0,28.83,1.67,41,5,12.16,3.34,22.46,8.42,30.88,15.25,8.41,6.84,14.88,15.42,19.38,25.75,4.5,10.34,6.75,22.5,6.75,36.5v173h-39Zm-4.75-114.25h-55.25c-10.84,0-20.17,1.09-28,3.25-7.84,2.17-14.25,5.25-19.25,9.25s-8.71,8.79-11.12,14.38c-2.42,5.59-3.62,11.88-3.62,18.88,0,4.84,.75,9.46,2.25,13.88,1.5,4.42,3.91,8.34,7.25,11.75,3.33,3.42,7.66,6.12,13,8.12,5.33,2,11.83,3,19.5,3,10,0,21.46-3.04,34.38-9.12,12.91-6.08,26.54-15.71,40.88-28.88v-44.5Z"/><path class="cls-1" d="M2147.37,857.29c-9.84,2.5-20,4.29-30.5,5.38-10.5,1.08-21.17,1.62-32,1.62-31.5,0-55-7.12-70.5-21.38s-23.25-36.12-23.25-65.62v-131h-70.25v-36.5h70.25v-69l43.5-11.25v80.25h112.75v36.5h-112.75v127.5c0,18,4.79,31.46,14.38,40.38,9.58,8.92,23.71,13.38,42.38,13.38,8,0,16.75-.62,26.25-1.88s19.41-3.21,29.75-5.88v37.5Z"/><path class="cls-1" d="M2449.37,548.04c-22.84-4.83-42.5-7.25-59-7.25-39.17,0-58.75,20.5-58.75,61.5v44h110v36.25h-110v178.25h-44.25v-178.25h-80.75v-36.25h80.75v-41.5c0-66.83,34.83-100.25,104.5-100.25,17.33,0,36.5,2,57.5,6v37.5Z"/><path class="cls-1" d="M2726.62,733.29c0,19.5-2.75,37.38-8.25,53.62s-13.42,30.17-23.75,41.75c-10.34,11.59-22.92,20.59-37.75,27-14.84,6.41-31.67,9.62-50.5,9.62s-34.12-2.79-48.38-8.38-26.34-13.79-36.25-24.62c-9.92-10.83-17.5-24.25-22.75-40.25s-7.88-34.41-7.88-55.25c0-19.5,2.75-37.29,8.25-53.38,5.5-16.08,13.41-29.91,23.75-41.5,10.33-11.58,22.91-20.58,37.75-27,14.83-6.41,31.66-9.62,50.5-9.62s34.12,2.79,48.38,8.38c14.25,5.59,26.33,13.75,36.25,24.5,9.91,10.75,17.5,24.12,22.75,40.12s7.88,34.34,7.88,55Zm-44.5,2c0-15.5-1.71-29.04-5.12-40.62-3.42-11.58-8.29-21.25-14.62-29-6.34-7.75-14.04-13.58-23.12-17.5-9.09-3.91-19.21-5.88-30.38-5.88-13,0-24.12,2.54-33.38,7.62-9.25,5.09-16.84,11.88-22.75,20.38-5.92,8.5-10.25,18.38-13,29.62s-4.12,23.04-4.12,35.38c0,15.5,1.71,29.09,5.12,40.75,3.41,11.67,8.29,21.38,14.62,29.12,6.33,7.75,14,13.59,23,17.5,9,3.92,19.16,5.88,30.5,5.88,13,0,24.12-2.54,33.38-7.62,9.25-5.08,16.83-11.88,22.75-20.38,5.91-8.5,10.25-18.38,13-29.62s4.12-23.12,4.12-35.62Z"/><path class="cls-1" d="M2799.87,609.79h39.75l1.25,46.25c14.83-17.83,29.46-30.75,43.88-38.75,14.41-8,28.96-12,43.62-12,26,0,45.71,8.42,59.12,25.25,13.41,16.84,19.62,41.84,18.62,75h-44c.5-22-2.71-37.96-9.62-47.88-6.92-9.91-17.04-14.88-30.38-14.88-5.84,0-11.71,1.04-17.62,3.12-5.92,2.09-12,5.42-18.25,10-6.25,4.59-12.88,10.46-19.88,17.62-7,7.17-14.5,15.84-22.5,26v161.25h-44v-251Z"/><path class="cls-1" d="M3250.12,860.79v-180.25c0-7.83-.29-14.25-.88-19.25-.59-5-1.5-8.96-2.75-11.88-1.25-2.91-2.84-4.96-4.75-6.12-1.92-1.16-4.29-1.75-7.12-1.75-3.34,0-6.42,1-9.25,3-2.84,2-5.88,5.25-9.12,9.75s-6.84,10.46-10.75,17.88c-3.92,7.42-8.54,16.54-13.88,27.38v161.25h-39.75v-175.5c0-9.16-.29-16.58-.88-22.25-.59-5.66-1.5-10.08-2.75-13.25-1.25-3.16-2.88-5.33-4.88-6.5-2-1.16-4.42-1.75-7.25-1.75-3,0-5.84,.84-8.5,2.5-2.67,1.67-5.62,4.67-8.88,9-3.25,4.34-6.88,10.25-10.88,17.75s-8.75,17.09-14.25,28.75v161.25h-40v-251h33.25l2,47.75c4.33-9.5,8.54-17.58,12.62-24.25,4.08-6.66,8.29-12.04,12.62-16.12,4.33-4.08,8.96-7.08,13.88-9,4.91-1.91,10.38-2.88,16.38-2.88,13.5,0,23.75,4.42,30.75,13.25,7,8.84,10.5,22.5,10.5,41,4-8.66,7.91-16.38,11.75-23.12,3.83-6.75,7.96-12.41,12.38-17,4.41-4.58,9.29-8.08,14.62-10.5,5.33-2.41,11.5-3.62,18.5-3.62,31.5,0,47.25,24.25,47.25,72.75v182.75h-40Z"/></g></svg>